<svg width="20" height="21" viewBox="0 0 20 21" fill="none" xmlns="http://www.w3.org/2000/svg">
<path d="M8.58568 7.67157H12.8283M12.8283 7.67157V11.9142M12.8283 7.67157L7.17147 13.3284M16.3639 4.13604C17.1996 4.97177 17.8625 5.96392 18.3148 7.05585C18.7671 8.14778 18.9999 9.3181 18.9999 10.5C18.9999 11.6819 18.7671 12.8522 18.3148 13.9442C17.8625 15.0361 17.1996 16.0282 16.3639 16.864C15.5281 17.6997 14.536 18.3626 13.444 18.8149C12.3521 19.2672 11.1818 19.5 9.99989 19.5C8.818 19.5 7.64767 19.2672 6.55574 18.8149C5.46381 18.3626 4.47166 17.6997 3.63593 16.864C1.94811 15.1761 0.999895 12.8869 0.999895 10.5C0.999895 8.11305 1.94811 5.82387 3.63593 4.13604C5.32376 2.44821 7.61295 1.5 9.99989 1.5C12.3868 1.5 14.676 2.44821 16.3639 4.13604Z" stroke="white" stroke-width="2" stroke-linecap="round" stroke-linejoin="round"/>
</svg>
