<svg width="44" height="44" viewBox="0 0 44 44" fill="none" xmlns="http://www.w3.org/2000/svg">
<path d="M23.375 20.625H41.25V7.975C41.25 6.58924 40.6995 5.26024 39.7196 4.28037C38.7398 3.30049 37.4108 2.75 36.025 2.75H23.375V20.625Z" fill="white"/>
<path d="M23.375 23.375V41.25H36.025C37.4108 41.25 38.7398 40.6995 39.7196 39.7196C40.6995 38.7398 41.25 37.4108 41.25 36.025V23.375H23.375Z" fill="white"/>
<path d="M20.625 2.75H7.975C6.58924 2.75 5.26024 3.30049 4.28037 4.28037C3.30049 5.26024 2.75 6.58924 2.75 7.975V36.025C2.75 37.4108 3.30049 38.7398 4.28037 39.7196C5.26024 40.6995 6.58924 41.25 7.975 41.25H20.625V2.75Z" fill="white"/>
</svg>
