<svg width="44" height="44" viewBox="0 0 44 44" fill="none" xmlns="http://www.w3.org/2000/svg">
<g clip-path="url(#clip0_211_706)">
<path d="M10.7168 40.3699L11.6244 39.9023L12.8011 42.1863L11.8935 42.6539L10.7168 40.3699Z" fill="white"/>
<path d="M3.38721 42.1726L4.56391 39.8886L5.47147 40.3561L4.29477 42.6402L3.38721 42.1726Z" fill="white"/>
<path d="M7.56934 43.9587L7.63357 41.3895L8.65445 41.415L8.59022 43.9843L7.56934 43.9587Z" fill="white"/>
<path d="M32.3369 1.81909L33.2445 1.35153L34.4212 3.63556L33.5136 4.10313L32.3369 1.81909Z" fill="white"/>
<path d="M39.6748 3.62939L40.8515 1.34536L41.7591 1.81292L40.5824 4.09696L39.6748 3.62939Z" fill="white"/>
<path d="M36.4966 2.5603L36.5608 -0.00891716L37.5817 0.0166049L37.5175 2.58582L36.4966 2.5603Z" fill="white"/>
<path d="M39.5507 36.8282C39.6187 36.8282 39.6868 36.8112 39.7464 36.7687L39.7123 34.1995L28.2529 34.208L28.287 36.8538C28.3465 36.8963 28.4146 36.9133 28.4911 36.9133L39.5507 36.8282Z" fill="white"/>
<path d="M27.2148 37.9768L27.2999 43.6002H40.9372L40.8521 37.8662L27.2148 37.9768Z" fill="white"/>
<path d="M40.733 24.0418L39.2357 19.3713C39.1506 19.2267 38.989 19.1416 38.8188 19.1416C38.436 19.1416 38.0702 19.3373 37.849 19.652C37.5427 20.188 37.4322 20.8175 37.5257 21.4301C37.6533 22.2128 37.9766 24.2035 38.1298 25.1223C38.1808 25.4115 38.2063 25.5902 38.2063 25.5987L38.2744 25.9985L37.9001 26.1517C37.6108 26.2878 37.3471 26.4579 37.1004 26.6536C36.7601 26.9258 36.4793 27.2491 36.2581 27.6234C36.0455 27.9978 35.8413 28.3891 35.6541 28.7889L34.7268 28.3551C34.8714 28.0488 35.0246 27.7425 35.1862 27.4533L27.8188 30.5329C27.8699 31.4943 28.2527 32.4046 28.9163 33.1022C28.9418 33.1277 28.9673 33.1617 29.0014 33.1872L39.1506 33.1787C39.1847 33.1277 39.2187 33.0681 39.2527 33.0171C39.5505 32.5577 39.8057 32.1408 39.8057 32.1323L39.8142 32.1153C39.8993 31.9792 39.9673 31.8346 40.0099 31.6814L41.4476 26.3388L41.0223 25.0032L40.733 24.0418Z" fill="white"/>
<path d="M42.673 22.051L36.0373 6.17625L29.8099 8.7795C29.4186 8.94114 28.9592 8.75398 28.7975 8.36264C28.7465 8.23503 28.7295 8.09041 28.7465 7.95429C28.823 7.43534 28.9506 6.15073 28.5593 5.40209C27.8532 4.08345 26.2113 3.59002 24.8926 4.29613C23.574 5.00224 23.0806 6.64416 23.7867 7.9628C24.127 8.59234 24.697 9.06024 25.3776 9.27293C25.6668 9.358 25.8625 9.61322 25.8795 9.91098C25.8965 10.2087 25.7179 10.4895 25.4456 10.6086L18.7163 13.382C18.8099 13.4926 18.8865 13.6117 18.946 13.7478C19.2438 14.4114 19.6521 15.3302 20.0775 16.2745C20.3072 16.7679 20.5369 17.2783 20.7411 17.7633C20.9622 18.2567 21.1664 18.7161 21.3451 19.1074C22.2894 17.2783 24.5353 16.5637 26.3644 17.508C27.9383 18.3247 28.7295 20.1368 28.236 21.8383V21.8468C28.236 21.8638 28.2275 21.8808 28.2275 21.8978C28.1339 22.2636 27.9893 22.6124 27.7936 22.9442C27.7596 23.0038 27.7256 23.0548 27.6831 23.1144C27.3428 23.6078 26.8919 24.0162 26.3644 24.2969C25.6328 24.6797 24.6629 24.7308 23.8292 24.6627L26.1007 29.7331C26.1602 29.8607 26.1943 29.9883 26.2198 30.1159L26.8068 29.8692L27.8192 29.4438L36.5902 25.7772C36.7689 25.6411 36.9561 25.5135 37.1517 25.4029C37.0071 24.5436 36.6583 22.4168 36.5307 21.5916C36.4031 20.7408 36.5562 19.8731 36.9901 19.1244L36.9986 19.1074C37.4155 18.4779 38.1216 18.1121 38.8702 18.1291C39.4147 18.1376 39.9166 18.4524 40.1633 18.9373L40.1803 18.9798L41.6776 23.6503L42.0945 23.4802C42.6475 23.242 42.9027 22.6039 42.673 22.051Z" fill="white"/>
<path d="M16.9551 6.83998L16.8785 1.01245H3.24121L3.31778 6.95058L16.9551 6.83998Z" fill="white"/>
<path d="M4.6195 7.98831C4.55144 7.98831 4.48338 8.00533 4.42383 8.04787L4.45786 10.6171V10.7192C4.51741 10.7617 4.58547 10.7872 4.66203 10.7787L15.6961 10.6937L15.7046 10.7107H15.7216C15.7896 10.7107 15.8577 10.6937 15.9173 10.6511L15.8747 7.96279C15.8152 7.92026 15.7471 7.89473 15.6705 7.90324L4.6195 7.98831Z" fill="white"/>
<path d="M22.6467 24.5097C22.5361 24.263 22.5616 23.9737 22.7233 23.7525C22.7233 23.744 22.7318 23.744 22.7318 23.7355C22.8934 23.5143 23.1741 23.3952 23.4464 23.4292C23.9653 23.4888 25.2499 23.5909 25.9901 23.174C26.5941 22.8337 27.045 22.2722 27.2407 21.6087C27.5299 20.3751 26.9174 19.1075 25.7689 18.5545C24.4247 17.908 22.8083 18.478 22.1618 19.8221C22.1022 19.9412 22.0512 20.0688 22.0171 20.1964C21.898 20.5708 21.5067 20.7835 21.1239 20.6644C20.9197 20.6048 20.7581 20.4517 20.673 20.256C20.4603 19.7541 20.137 18.9714 19.7797 18.1207C19.7797 18.1207 19.7797 18.1121 19.7712 18.1121C19.1587 16.7425 18.4441 15.1516 18.0017 14.1477C17.9506 14.0371 17.8656 13.9521 17.755 13.9095C17.7039 13.8925 17.6529 13.8755 17.5933 13.8755C17.5338 13.8755 17.4657 13.8925 17.4147 13.918L17.3211 13.9606L16.3257 14.4029L8.68613 17.8229C8.26076 18.478 7.69077 19.0224 7.01018 19.4053C7.15481 20.2645 7.50361 22.3913 7.63122 23.2166C7.76734 24.0673 7.6057 24.935 7.17182 25.6837L7.16331 25.7007C6.76347 26.3047 6.09139 26.6705 5.36826 26.6876C5.34274 26.6876 5.31722 26.6876 5.28319 26.6876C4.73872 26.679 4.23679 26.3643 3.99007 25.8794L3.97306 25.8368L2.32263 20.6729L1.87174 20.877C1.32727 21.1237 1.08056 21.7703 1.32727 22.3148L8.47345 38.2831L14.2414 35.6968C13.5353 35.1524 12.7611 34.4037 12.4804 33.5615C11.8253 31.6133 12.8717 29.495 14.8199 28.8399C16.7681 28.1848 18.8864 29.2313 19.5415 31.1794C19.7712 31.86 19.7967 32.5917 19.6181 33.2893C21.0728 32.6342 23.4379 31.5793 24.8416 30.9497C25.1564 30.8051 25.301 30.4393 25.1564 30.1245L22.6467 24.5097Z" fill="white"/>
<path d="M3.27528 20.2645L4.93421 25.4455C5.01928 25.5901 5.18092 25.6752 5.35107 25.6752C5.7339 25.6752 6.09972 25.4795 6.3124 25.1648C6.61866 24.6288 6.72926 23.9992 6.62717 23.3867C6.46553 22.3573 5.94658 19.2521 5.94658 19.2181L5.92106 19.082L5.87853 18.8183L6.25285 18.6651C6.26136 18.6651 7.30776 18.2143 7.88626 17.1934C7.91178 17.1423 7.9373 17.0998 7.97133 17.0487L9.34952 16.4362L16.1724 13.3821C15.9938 12.761 15.6705 12.191 15.2281 11.7231L4.89167 11.8082C4.59392 12.2676 4.3387 12.6845 4.3387 12.693L4.33019 12.71C4.24511 12.8461 4.17706 12.9907 4.13452 13.1439L2.69678 18.4865L2.96051 19.3032L3.27528 20.2645Z" fill="white"/>
</g>
<defs>
<clipPath id="clip0_211_706">
<rect width="44" height="44" fill="white"/>
</clipPath>
</defs>
</svg>
