<svg width="44" height="44" viewBox="0 0 44 44" fill="none" xmlns="http://www.w3.org/2000/svg">
<path d="M34.8335 1.83325H9.16683C8.72752 1.83831 8.30464 2.00096 7.97516 2.29159C9.28258 2.75157 10.4329 3.57264 11.2927 4.65964C12.1526 5.74664 12.6868 7.05506 12.8335 8.43325C12.8615 8.67689 12.8615 8.92294 12.8335 9.16659V40.3333C12.8326 40.6839 12.9323 41.0275 13.1208 41.3232C13.3093 41.6189 13.5786 41.8543 13.8968 42.0016C14.2158 42.1484 14.5702 42.2006 14.918 42.1518C15.2658 42.1031 15.5922 41.9555 15.8585 41.7266L21.0835 37.2533L26.3085 41.7266C26.6406 42.0106 27.0632 42.1667 27.5002 42.1667C27.9371 42.1667 28.3598 42.0106 28.6918 41.7266L33.9168 37.2533L39.1418 41.7266C39.4739 42.0106 39.8965 42.1666 40.3335 42.1666C40.5987 42.1647 40.8608 42.1086 41.1035 42.0016C41.4217 41.8543 41.691 41.6189 41.8795 41.3232C42.068 41.0275 42.1677 40.6839 42.1668 40.3333V9.16659C42.1668 7.22166 41.3942 5.3564 40.0189 3.98114C38.6437 2.60587 36.7784 1.83325 34.8335 1.83325ZM33.0002 27.4999H22.0002C21.5139 27.4999 21.0476 27.3068 20.7038 26.9629C20.36 26.6191 20.1668 26.1528 20.1668 25.6666C20.1668 25.1804 20.36 24.714 20.7038 24.3702C21.0476 24.0264 21.5139 23.8333 22.0002 23.8333H33.0002C33.4864 23.8333 33.9527 24.0264 34.2965 24.3702C34.6403 24.714 34.8335 25.1804 34.8335 25.6666C34.8335 26.1528 34.6403 26.6191 34.2965 26.9629C33.9527 27.3068 33.4864 27.4999 33.0002 27.4999ZM33.0002 20.1666H22.0002C21.5139 20.1666 21.0476 19.9734 20.7038 19.6296C20.36 19.2858 20.1668 18.8195 20.1668 18.3333C20.1668 17.847 20.36 17.3807 20.7038 17.0369C21.0476 16.6931 21.5139 16.4999 22.0002 16.4999H33.0002C33.4864 16.4999 33.9527 16.6931 34.2965 17.0369C34.6403 17.3807 34.8335 17.847 34.8335 18.3333C34.8335 18.8195 34.6403 19.2858 34.2965 19.6296C33.9527 19.9734 33.4864 20.1666 33.0002 20.1666ZM33.0002 12.8333H22.0002C21.5139 12.8333 21.0476 12.6401 20.7038 12.2963C20.36 11.9525 20.1668 11.4861 20.1668 10.9999C20.1668 10.5137 20.36 10.0474 20.7038 9.70356C21.0476 9.35974 21.5139 9.16659 22.0002 9.16659H33.0002C33.4864 9.16659 33.9527 9.35974 34.2965 9.70356C34.6403 10.0474 34.8335 10.5137 34.8335 10.9999C34.8335 11.4861 34.6403 11.9525 34.2965 12.2963C33.9527 12.6401 33.4864 12.8333 33.0002 12.8333ZM9.16683 9.16659V23.8333H3.66683C3.1806 23.8333 2.71428 23.6401 2.37047 23.2963C2.02665 22.9525 1.8335 22.4861 1.8335 21.9999V9.16659C1.8335 8.90992 1.8335 8.67159 1.8335 8.43325C1.93074 7.46079 2.41031 6.56679 3.16671 5.94792C3.92311 5.32905 4.89437 5.03601 5.86683 5.13325C6.83929 5.2305 7.73329 5.71007 8.35216 6.46647C8.97103 7.22286 9.26408 8.19412 9.16683 9.16659Z" fill="white"/>
</svg>
