<svg width="57" height="44" viewBox="0 0 57 44" fill="none" xmlns="http://www.w3.org/2000/svg">
<g clip-path="url(#clip0_211_449)">
<path d="M52.5469 1.53687H55.2188V3.31628H52.5469V1.53687Z" fill="white"/>
<path d="M52.5469 40.6838H55.2188V42.4632H52.5469V40.6838Z" fill="white"/>
<path d="M16.0312 16.6619H15.1406V18.4413H16.0312C16.522 18.4413 16.9219 18.0427 16.9219 17.5516C16.9219 17.0605 16.522 16.6619 16.0312 16.6619Z" fill="white"/>
<path d="M22.2656 16.6619H21.375V18.4413H22.2656C22.7564 18.4413 23.1562 18.0427 23.1562 17.5516C23.1562 17.0605 22.7564 16.6619 22.2656 16.6619Z" fill="white"/>
<path d="M16.0312 20.2207H15.1406V22.0001H16.0312C16.522 22.0001 16.9219 21.6015 16.9219 21.1104C16.9219 20.6193 16.522 20.2207 16.0312 20.2207Z" fill="white"/>
<path d="M28.5 16.6619C28.0093 16.6619 27.6094 17.0605 27.6094 17.5516V19.331H29.3906V17.5516C29.3906 17.0605 28.9907 16.6619 28.5 16.6619Z" fill="white"/>
<path d="M6.23438 39.7942H9.79688V43.353H6.23438V39.7942Z" fill="white"/>
<path d="M27.2405 33.5661C27.5015 33.5661 27.7535 33.5145 27.9904 33.4255L23.5596 28.9993L24.8145 37.1499C27.0954 37.3002 29.2765 38.1205 31.0943 39.5031L35.3336 35.2681C33.9496 33.4522 33.1284 31.2742 32.9779 28.9957L24.818 27.7412L29.2498 32.1684C29.3379 31.9308 29.3905 31.6799 29.3905 31.4193V30.8979H31.1717V31.4193C31.1717 32.4682 30.7629 33.454 30.0211 34.196C29.2792 34.938 28.2915 35.3464 27.2405 35.3464H26.7186V33.567L27.2405 33.5661Z" fill="white"/>
<path d="M31.5322 41.5723L37.397 35.7136L40.5901 38.9033L34.7253 44.762L31.5322 41.5723Z" fill="white"/>
<path d="M6.23438 0.646973H9.79688V4.2058H6.23438V0.646973Z" fill="white"/>
<path d="M48.0938 5.98528H46.3125C45.8209 5.98528 45.4219 5.58758 45.4219 5.09557V3.31616H11.5781V5.09557C11.5781 5.58758 11.1791 5.98528 10.6875 5.98528H8.90625V38.0147H10.6875C11.1791 38.0147 11.5781 38.4124 11.5781 38.9044V40.6838H29.6872C28.0395 39.5343 26.0766 38.9044 24.0469 38.9044C23.6069 38.9044 23.2337 38.5841 23.1669 38.1499L21.3857 26.5837C21.3429 26.3035 21.4356 26.0197 21.636 25.8195C21.8372 25.6184 22.1231 25.5277 22.401 25.5695L33.9791 27.3489C34.4137 27.4156 34.7344 27.7893 34.7344 28.2279C34.7344 30.3098 35.3943 32.325 36.6056 33.9977L36.7766 33.8268C37.1248 33.479 37.6877 33.479 38.0359 33.8268L42.489 38.2754C42.8373 38.6232 42.8373 39.1855 42.489 39.5334L41.3375 40.6838H45.4219V38.9044C45.4219 38.4124 45.8209 38.0147 46.3125 38.0147H48.0938V5.98528ZM18.7031 21.1103C18.7031 22.5819 17.5043 23.7794 16.0312 23.7794H14.25C13.7584 23.7794 13.3594 23.3817 13.3594 22.8897V15.772C13.3594 15.28 13.7584 14.8823 14.25 14.8823H16.0312C17.5043 14.8823 18.7031 16.0799 18.7031 17.5515C18.7031 18.2347 18.4448 18.8584 18.0209 19.3309C18.4448 19.8033 18.7031 20.427 18.7031 21.1103ZM24.9375 23.6264V23.7794H23.1562V23.6264C23.1562 22.3594 22.6994 21.1646 21.8729 20.2206H21.375V23.7794H19.5938V15.772C19.5938 15.28 19.9928 14.8823 20.4844 14.8823H22.2656C23.7387 14.8823 24.9375 16.0799 24.9375 17.5515C24.9375 18.4679 24.4726 19.2775 23.7654 19.7579C24.5278 20.8932 24.9375 22.2277 24.9375 23.6264ZM31.1719 23.7794H29.3906V21.1103H27.6094V23.7794H25.8281V17.5515C25.8281 16.0799 27.0269 14.8823 28.5 14.8823C29.9731 14.8823 31.1719 16.0799 31.1719 17.5515V23.7794ZM37.4062 22.8897C37.4062 23.3025 37.1221 23.6602 36.7205 23.7563C36.6519 23.7723 36.5833 23.7794 36.5156 23.7794C36.1834 23.7794 35.8726 23.5943 35.7185 23.2874L33.8438 19.5408V23.7794H32.0625V15.772C32.0625 15.3592 32.3466 15.0016 32.7483 14.9055C33.1553 14.8129 33.565 15.0042 33.7502 15.3735L35.625 19.12V14.8814H37.4062V22.8897ZM43.6406 21.1103C43.6406 22.5819 42.4418 23.7794 40.9688 23.7794H39.1875C38.6959 23.7794 38.2969 23.3817 38.2969 22.8897V15.772C38.2969 15.28 38.6959 14.8823 39.1875 14.8823H40.9688C42.4418 14.8823 43.6406 16.0799 43.6406 17.5515V21.1103Z" fill="white"/>
<path d="M47.2031 39.7942H50.7656V43.353H47.2031V39.7942Z" fill="white"/>
<path d="M40.9688 16.6619H40.0781V22.0001H40.9688C41.4595 22.0001 41.8594 21.6015 41.8594 21.1104V17.5516C41.8594 17.0605 41.4595 16.6619 40.9688 16.6619Z" fill="white"/>
<path d="M47.2031 0.646973H50.7656V4.2058H47.2031V0.646973Z" fill="white"/>
<path d="M1.78125 1.53687H4.45312V3.31628H1.78125V1.53687Z" fill="white"/>
<path d="M1.78125 40.6838H4.45312V42.4632H1.78125V40.6838Z" fill="white"/>
</g>
<defs>
<clipPath id="clip0_211_449">
<rect width="57" height="44" fill="white"/>
</clipPath>
</defs>
</svg>
