<svg width="44" height="44" viewBox="0 0 44 44" fill="none" xmlns="http://www.w3.org/2000/svg">
<g clip-path="url(#clip0_211_159)">
<path d="M32.9611 29.4439C33.3082 26.9779 33.4805 24.4904 33.4767 22C33.4805 19.5096 33.3082 17.0221 32.9611 14.5561H42.7107C44.4337 19.3691 44.4337 24.6309 42.7107 29.4439H32.9611ZM21.9998 44C19.8513 44 17.6582 41.7948 15.9764 37.9509C15.2081 36.1952 14.5825 34.1937 14.1142 32.0212H29.8854C29.417 34.1928 28.7914 36.1943 28.0231 37.9509C26.3413 41.7948 24.1482 44 21.9998 44ZM13.6432 29.4439C12.919 24.5077 12.919 19.4923 13.6432 14.5561H30.3563C30.7226 17.0204 30.9041 19.5086 30.8995 22C30.9041 24.4914 30.7226 26.9796 30.3563 29.4439H13.6432ZM1.28885 29.4439C-0.434172 24.6309 -0.434172 19.3691 1.28885 14.5561H11.0385C10.3498 19.4948 10.3498 24.5052 11.0385 29.4439H1.28885ZM21.9998 0C24.1482 0 26.3413 2.2043 28.0231 6.04914C28.7914 7.80484 29.417 9.80633 29.8854 11.9788H14.1142C14.5825 9.80719 15.2081 7.8057 15.9764 6.04914C17.6582 2.2043 19.8513 0 21.9998 0ZM41.5935 11.978H32.5168C32.0012 9.42563 31.2845 7.07008 30.3856 5.01703C29.6577 3.35156 28.8327 1.94133 27.9295 0.805234C30.8582 1.61629 33.5858 3.02866 35.9384 4.95231C38.291 6.87597 40.2169 9.2687 41.5935 11.978ZM16.0701 0.804375C15.1695 1.94133 14.3453 3.3507 13.6166 5.01531C12.7177 7.07008 12.0018 9.42562 11.4853 11.9762H2.40603C3.78293 9.26729 5.70902 6.87486 8.06158 4.95138C10.4141 3.02791 13.1416 1.61557 16.0701 0.804375ZM2.40603 32.022H11.4828C11.9984 34.5744 12.7151 36.9299 13.614 38.983C14.3428 40.6476 15.1669 42.057 16.0675 43.1939C13.1394 42.3826 10.4123 40.9702 8.06018 39.0468C5.70806 37.1233 3.78243 34.7309 2.40603 32.022ZM27.9295 43.1939C28.8301 42.057 29.6551 40.6476 30.383 38.983C31.2819 36.9282 31.9977 34.5727 32.5142 32.022H41.5935C40.2169 34.7314 38.291 37.1242 35.9384 39.048C33.5858 40.9718 30.8582 42.3844 27.9295 43.1956V43.1939Z" fill="white"/>
</g>
<defs>
<clipPath id="clip0_211_159">
<rect width="44" height="44" fill="white"/>
</clipPath>
</defs>
</svg>
