<svg width="28" height="28" viewBox="0 0 28 28" fill="none" xmlns="http://www.w3.org/2000/svg">
<g clip-path="url(#clip0_143_887)">
<path d="M24.7187 8.2578V5.7422C24.7187 4.38522 23.6148 3.28126 22.2578 3.28126H20.8906V2.46094C20.8906 1.10396 19.7866 0 18.4297 0C17.0728 0 15.9688 1.10396 15.9688 2.46094V3.28126H14.0039L12.1992 1.09372H2.46094C1.10396 1.09372 0 2.19769 0 3.55467V18.3203C0 19.6772 1.10396 20.7812 2.46094 20.7812H5.03127V27.9999H28V8.2578H24.7187ZM20.8906 4.92189H22.2578C22.7101 4.92189 23.0781 5.28988 23.0781 5.7422V8.2578H20.8906V4.92189ZM17.6094 2.46094C17.6094 2.00862 17.9774 1.64063 18.4297 1.64063C18.882 1.64063 19.25 2.00862 19.25 2.46094V3.28126H17.6094V2.46094ZM5.03127 19.1407H2.46094C2.00862 19.1407 1.64063 18.7727 1.64063 18.3203V3.55467C1.64063 3.10234 2.00862 2.73435 2.46094 2.73435H11.4258L13.2304 4.92189H19.2499V8.2578H16.4062V6.61717H14.7656V8.2578H5.03127V19.1407ZM19.25 9.89843V10.1172C19.25 10.9012 18.6122 11.5391 17.8282 11.5391C17.0441 11.5391 16.4063 10.9012 16.4063 10.1172V9.89843H19.25ZM26.3594 26.3594H6.6719V9.89843H14.7657V10.1172C14.7657 11.8059 16.1395 13.1797 17.8282 13.1797C19.5168 13.1797 20.8907 11.8059 20.8907 10.1172V9.89843H26.3594V26.3594Z" fill="#1E3A8A"/>
<path d="M22.8806 19.3566C21.4067 18.233 19.426 18.1211 17.835 19.0716L17.0999 19.5108L14.0657 16.8491L8.3125 20.7277V24.7187H24.7187V20.7579L22.8806 19.3566ZM23.0781 23.078H9.95313V21.6002L13.9343 18.9163L16.9159 21.5318L18.6765 20.4801C19.6886 19.8753 20.9485 19.9465 21.8861 20.6613L23.0783 21.57V23.078H23.0781Z" fill="#1E3A8A"/>
<path d="M10.7734 11.5391C9.41646 11.5391 8.3125 12.643 8.3125 14C8.3125 15.357 9.41646 16.461 10.7734 16.461C12.1304 16.461 13.2344 15.357 13.2344 14C13.2344 12.643 12.1303 11.5391 10.7734 11.5391ZM10.7734 14.8203C10.3211 14.8203 9.95313 14.4523 9.95313 14C9.95313 13.5477 10.3211 13.1797 10.7734 13.1797C11.2258 13.1797 11.5938 13.5477 11.5938 14C11.5937 14.4523 11.2257 14.8203 10.7734 14.8203Z" fill="#1E3A8A"/>
</g>
<defs>
<clipPath id="clip0_143_887">
<rect width="28" height="28" fill="white"/>
</clipPath>
</defs>
</svg>
