<svg width="54" height="54" viewBox="0 0 54 54" fill="none" xmlns="http://www.w3.org/2000/svg">
<rect width="54" height="54" rx="16" fill="#D4FBE2"/>
<path d="M41.7628 23.5871C41.6008 23.2947 41.3633 23.0512 41.075 22.8819C40.7868 22.7127 40.4583 22.624 40.1241 22.625H22.3577C21.7587 22.625 21.1758 22.8193 20.6966 23.1786C20.2174 23.538 19.8677 24.0432 19.7 24.6182L16.1834 36.675C15.9983 37.3097 15.6123 37.8672 15.0834 38.2639C14.5545 38.6606 13.9111 38.875 13.25 38.875H35.5924C36.2537 38.875 36.8971 38.6605 37.4261 38.2638C37.9552 37.867 38.3412 37.3093 38.5264 36.6745L41.9023 25.1006C41.9808 24.8517 42.0089 24.5897 41.985 24.3298C41.961 24.0699 41.8855 23.8175 41.7628 23.5871Z" fill="#14532D"/>
<path d="M14.9813 36.325L18.5 24.2687C18.7451 23.4353 19.253 22.7033 19.9479 22.1819C20.6427 21.6604 21.4875 21.3774 22.3562 21.375H38.25V20.75C38.25 20.087 37.9866 19.4511 37.5178 18.9822C37.0489 18.5134 36.413 18.25 35.75 18.25H26.2223C26.0361 18.25 25.8522 18.2085 25.684 18.1285C25.5158 18.0485 25.3675 17.932 25.25 17.7875L24.0214 16.2768C23.7288 15.917 23.3596 15.6269 22.9407 15.4276C22.5218 15.2284 22.0638 15.125 21.6 15.125H14.5C13.837 15.125 13.2011 15.3884 12.7322 15.8572C12.2634 16.3261 12 16.962 12 17.625V36.375C12 36.7065 12.1317 37.0245 12.3661 37.2589C12.6005 37.4933 12.9185 37.625 13.25 37.625C13.6402 37.6239 14.0195 37.4968 14.3315 37.2625C14.6435 37.0282 14.8714 36.6994 14.9813 36.325Z" fill="#14532D"/>
</svg>
