<svg width="28" height="28" viewBox="0 0 28 28" fill="none" xmlns="http://www.w3.org/2000/svg">
<path d="M14 0C11.2311 0 8.52431 0.821086 6.22202 2.35943C3.91973 3.89776 2.12532 6.08427 1.06569 8.64243C0.00606598 11.2006 -0.271181 14.0155 0.269012 16.7313C0.809205 19.447 2.14258 21.9416 4.10051 23.8995C6.05845 25.8574 8.55301 27.1908 11.2687 27.731C13.9845 28.2712 16.7994 27.9939 19.3576 26.9343C21.9157 25.8747 24.1022 24.0803 25.6406 21.778C27.1789 19.4757 28 16.7689 28 14C27.9961 10.2882 26.5198 6.72949 23.8952 4.10483C21.2705 1.48017 17.7118 0.00391976 14 0ZM23.6748 7.17096L15.0769 12.1342V2.20365C16.7841 2.36017 18.437 2.88537 19.9214 3.74298C21.4059 4.60059 22.6865 5.77017 23.6748 7.17096ZM12.9231 2.20365V13.3767L3.24558 18.9633C2.45114 17.2413 2.0817 15.3538 2.16832 13.4594C2.25495 11.565 2.79511 9.71912 3.74339 8.07687C4.69168 6.43462 6.02037 5.04403 7.61777 4.02201C9.21517 2.99998 11.0346 2.37639 12.9231 2.20365ZM14 25.8461C12.1035 25.8454 10.235 25.3893 8.55139 24.5162C6.86782 23.6432 5.41847 22.3787 4.3252 20.829L24.7544 9.03538C25.5875 10.8402 25.953 12.8257 25.8173 14.8089C25.6815 16.7922 25.0489 18.7093 23.9777 20.3838C22.9064 22.0583 21.431 23.4364 19.6874 24.3909C17.9437 25.3455 15.9879 25.8459 14 25.8461Z" fill="#1E3A8A"/>
</svg>
