<svg width="28" height="28" viewBox="0 0 28 28" fill="none" xmlns="http://www.w3.org/2000/svg">
<g clip-path="url(#clip0_143_988)">
<path d="M9.84375 17.0625H3.28125C1.47197 17.0625 0 18.5345 0 20.3438V24.7188C0 26.528 1.47197 28 3.28125 28H9.84375C11.653 28 13.125 26.528 13.125 24.7188V20.3438C13.125 18.5345 11.653 17.0625 9.84375 17.0625ZM10.9375 24.7188C10.9375 25.3218 10.4468 25.8125 9.84375 25.8125H3.28125C2.67816 25.8125 2.1875 25.3218 2.1875 24.7188V20.3438C2.1875 19.7407 2.67816 19.25 3.28125 19.25H9.84375C10.4468 19.25 10.9375 19.7407 10.9375 20.3438V24.7188ZM24.7188 0H18.1562C16.347 0 14.875 1.47197 14.875 3.28125V7.65625C14.875 9.46553 16.347 10.9375 18.1562 10.9375H24.7188C26.528 10.9375 28 9.46553 28 7.65625V3.28125C28 1.47197 26.528 0 24.7188 0ZM25.8125 7.65625C25.8125 8.25934 25.3218 8.75 24.7188 8.75H18.1562C17.5532 8.75 17.0625 8.25934 17.0625 7.65625V3.28125C17.0625 2.67816 17.5532 2.1875 18.1562 2.1875H24.7188C25.3218 2.1875 25.8125 2.67816 25.8125 3.28125V7.65625ZM24.7188 12.6875H18.1562C16.347 12.6875 14.875 14.1595 14.875 15.9688V24.7188C14.875 26.528 16.347 28 18.1562 28H24.7188C26.528 28 28 26.528 28 24.7188V15.9688C28 14.1595 26.528 12.6875 24.7188 12.6875ZM25.8125 24.7188C25.8125 25.3218 25.3218 25.8125 24.7188 25.8125H18.1562C17.5532 25.8125 17.0625 25.3218 17.0625 24.7188V15.9688C17.0625 15.3657 17.5532 14.875 18.1562 14.875H24.7188C25.3218 14.875 25.8125 15.3657 25.8125 15.9688V24.7188ZM9.84375 0H3.28125C1.47197 0 0 1.47197 0 3.28125V12.0312C0 13.8405 1.47197 15.3125 3.28125 15.3125H9.84375C11.653 15.3125 13.125 13.8405 13.125 12.0312V3.28125C13.125 1.47197 11.653 0 9.84375 0ZM10.9375 12.0312C10.9375 12.6343 10.4468 13.125 9.84375 13.125H3.28125C2.67816 13.125 2.1875 12.6343 2.1875 12.0312V3.28125C2.1875 2.67816 2.67816 2.1875 3.28125 2.1875H9.84375C10.4468 2.1875 10.9375 2.67816 10.9375 3.28125V12.0312Z" fill="#1E3A8A"/>
</g>
<defs>
<clipPath id="clip0_143_988">
<rect width="28" height="28" fill="white"/>
</clipPath>
</defs>
</svg>
