<svg width="32" height="28" viewBox="0 0 32 28" fill="none" xmlns="http://www.w3.org/2000/svg">
<path d="M30.7692 25.5652H29.5385V1.21739C29.5385 0.894519 29.4088 0.584871 29.178 0.356566C28.9472 0.128261 28.6341 0 28.3077 0H19.6923C19.3659 0 19.0528 0.128261 18.822 0.356566C18.5912 0.584871 18.4615 0.894519 18.4615 1.21739V7.30435H11.0769C10.7505 7.30435 10.4375 7.43261 10.2066 7.66091C9.97582 7.88922 9.84615 8.19887 9.84615 8.52174V14.6087H3.69231C3.36589 14.6087 3.05284 14.737 2.82202 14.9653C2.59121 15.1936 2.46154 15.5032 2.46154 15.8261V25.5652H1.23077C0.904349 25.5652 0.591298 25.6935 0.360484 25.9218C0.12967 26.1501 0 26.4597 0 26.7826C0 27.1055 0.12967 27.4151 0.360484 27.6434C0.591298 27.8717 0.904349 28 1.23077 28H30.7692C31.0957 28 31.4087 27.8717 31.6395 27.6434C31.8703 27.4151 32 27.1055 32 26.7826C32 26.4597 31.8703 26.1501 31.6395 25.9218C31.4087 25.6935 31.0957 25.5652 30.7692 25.5652ZM20.9231 2.43478H27.0769V25.5652H20.9231V2.43478ZM12.3077 9.73913H18.4615V25.5652H12.3077V9.73913ZM4.92308 17.0435H9.84615V25.5652H4.92308V17.0435Z" fill="#1E3A8A"/>
</svg>
