<svg width="28" height="28" viewBox="0 0 28 28" fill="none" xmlns="http://www.w3.org/2000/svg">
<path d="M25.4224 4.39327H11.2133C10.963 4.39327 10.7278 4.29582 10.5508 4.11885L8.94423 2.51229C8.4574 2.02546 7.81006 1.75732 7.1216 1.75732H2.5776C1.15632 1.75732 0 2.91364 0 4.33497V23.6652C0 25.0887 1.15167 26.2428 2.5776 26.2428H25.4224C26.8461 26.2428 28 25.0909 28 23.6652V6.97087C28 5.54746 26.8484 4.39327 25.4224 4.39327ZM2.5776 3.39796H7.1216C7.37185 3.39796 7.60717 3.49541 7.78414 3.67238L9.39065 5.27888C9.87748 5.76571 10.5248 6.03385 11.2133 6.03385H25.4224C25.9399 6.03385 26.3594 6.45265 26.3594 6.97081V8.96205C26.0646 8.84715 25.7483 8.78639 25.4224 8.78639H2.5776C2.25171 8.78639 1.93534 8.84715 1.64063 8.96205V4.33497C1.64063 3.81829 2.06096 3.39796 2.5776 3.39796ZM26.3594 23.6651C26.3594 24.1827 25.9406 24.6021 25.4224 24.6021H2.5776C2.05998 24.6021 1.64063 24.1833 1.64063 23.6651V11.3641C1.64063 10.8465 2.05943 10.4271 2.5776 10.4271H25.4224C25.9399 10.4271 26.3594 10.8459 26.3594 11.3641V23.6651Z" fill="#1E3A8A"/>
</svg>
