<svg width="28" height="28" viewBox="0 0 28 28" fill="none" xmlns="http://www.w3.org/2000/svg">
<path d="M15.9249 2.3633L8.75506 9.53317C7.83293 10.4553 7.3252 11.6817 7.3252 12.9856C7.3252 14.2894 7.83293 15.5149 8.75506 16.437C9.67719 17.3592 10.9036 17.8669 12.2075 17.8669C13.5113 17.8669 14.7368 17.3592 15.6589 16.437C16.0239 16.0721 16.0239 15.4813 15.6589 15.1173C15.294 14.7524 14.7041 14.7524 14.3392 15.1173C13.1996 16.2569 11.2144 16.2569 10.0748 15.1173C9.50546 14.548 9.19186 13.791 9.19186 12.9856C9.19186 12.1801 9.50546 11.4232 10.0748 10.8529L17.2447 3.68304C18.4207 2.50704 20.334 2.50704 21.5091 3.68304C22.6841 4.85904 22.6841 6.77144 21.5091 7.94744L20.3919 9.06464C20.0269 9.42957 20.0269 10.0194 20.3919 10.3844C20.7568 10.7493 21.3467 10.7493 21.7116 10.3844L22.8288 9.26717C24.7319 7.36317 24.7319 4.26637 22.8288 2.3633C20.9257 0.459303 17.828 0.459303 15.9249 2.3633Z" fill="#1E3A8A"/>
<path d="M15.7918 10.1023C14.4879 10.1023 13.2625 10.61 12.3403 11.5322C11.9754 11.8971 11.9754 12.4879 12.3403 12.8519C12.7053 13.2168 13.2951 13.2168 13.6601 12.8519C14.7997 11.7123 16.7849 11.7123 17.9245 12.8519C18.4938 13.4212 18.8074 14.1782 18.8074 14.9836C18.8074 15.7891 18.4938 16.546 17.9245 17.1163L10.7546 24.2862C9.5786 25.4622 7.66526 25.4622 6.4902 24.2862C5.31513 23.1102 5.31513 21.1978 6.4902 20.0218L7.6074 18.9046C7.97233 18.5396 7.97233 17.9498 7.6074 17.5848C7.24246 17.2199 6.6526 17.2199 6.28766 17.5848L5.17046 18.702C3.2674 20.606 3.2674 23.7028 5.17046 25.6059C6.12246 26.5579 7.3722 27.0339 8.62286 27.0339C9.87353 27.0339 11.1233 26.5579 12.0753 25.6059L19.2451 18.436C20.1673 17.5139 20.675 16.2875 20.675 14.9836C20.675 13.6798 20.1673 12.4543 19.2451 11.5322C18.323 10.61 17.0957 10.1023 15.7918 10.1023Z" fill="#1E3A8A"/>
</svg>
