<svg width="24" height="26" viewBox="0 0 24 26" fill="none" xmlns="http://www.w3.org/2000/svg">
<path d="M23.6809 7.2925L16.0445 0.2925C15.9432 0.199666 15.8228 0.126052 15.6904 0.0758639C15.558 0.0256758 15.416 -0.000102986 15.2727 3.09198e-07H2.18182C1.60316 3.09198e-07 1.04821 0.210714 0.63904 0.585787C0.229869 0.960859 0 1.46957 0 2V24C0 24.5304 0.229869 25.0391 0.63904 25.4142C1.04821 25.7893 1.60316 26 2.18182 26H21.8182C22.3968 26 22.9518 25.7893 23.361 25.4142C23.7701 25.0391 24 24.5304 24 24V8C24.0001 7.86864 23.972 7.73855 23.9172 7.61715C23.8625 7.49576 23.7822 7.38544 23.6809 7.2925ZM16.3636 3.41375L20.2759 7H16.3636V3.41375ZM21.8182 24H2.18182V2H14.1818V8C14.1818 8.26522 14.2968 8.51957 14.5013 8.70711C14.7059 8.89464 14.9834 9 15.2727 9H21.8182V24ZM15.6082 17.8937C16.252 16.956 16.4963 15.8336 16.2945 14.7411C16.0926 13.6486 15.4587 12.6626 14.5139 11.9715C13.5692 11.2803 12.3797 10.9325 11.1728 10.9944C9.96593 11.0564 8.82624 11.5237 7.97151 12.3072C7.11678 13.0907 6.60693 14.1354 6.53936 15.2417C6.4718 16.348 6.85126 17.4384 7.60524 18.3044C8.35923 19.1705 9.43488 19.7516 10.6267 19.9366C11.8185 20.1216 13.0429 19.8977 14.0659 19.3075L15.5918 20.7075C15.6932 20.8004 15.8135 20.8741 15.9459 20.9244C16.0784 20.9747 16.2203 21.0006 16.3636 21.0006C16.507 21.0006 16.6489 20.9747 16.7813 20.9244C16.9138 20.8741 17.0341 20.8004 17.1355 20.7075C17.2368 20.6146 17.3172 20.5043 17.3721 20.3829C17.4269 20.2615 17.4552 20.1314 17.4552 20C17.4552 19.8686 17.4269 19.7385 17.3721 19.6171C17.3172 19.4957 17.2368 19.3854 17.1355 19.2925L15.6082 17.8937ZM8.72727 15.5C8.72727 15.0055 8.88722 14.5222 9.1869 14.1111C9.48658 13.7 9.91252 13.3795 10.4109 13.1903C10.9092 13.0011 11.4576 12.9516 11.9866 13.048C12.5156 13.1445 13.0016 13.3826 13.383 13.7322C13.7644 14.0819 14.0242 14.5273 14.1294 15.0123C14.2346 15.4972 14.1806 15.9999 13.9742 16.4567C13.7678 16.9135 13.4182 17.304 12.9697 17.5787C12.5212 17.8534 11.9939 18 11.4545 18C10.7312 18 10.0375 17.7366 9.52607 17.2678C9.01461 16.7989 8.72727 16.163 8.72727 15.5Z" fill="#1E3A8A"/>
</svg>
