<svg width="24" height="28" viewBox="0 0 24 28" fill="none" xmlns="http://www.w3.org/2000/svg">
<path d="M22.3442 2.90533L6.06458 0.030275C5.54233 -0.0616385 5.00496 0.0576563 4.57065 0.361926C4.13633 0.666195 3.84063 1.13053 3.74856 1.65281L0.030188 22.7782C-0.0152912 23.037 -0.00933326 23.3023 0.0477215 23.5588C0.104776 23.8153 0.211809 24.058 0.362704 24.2731C0.513599 24.4882 0.705398 24.6715 0.92714 24.8124C1.14888 24.9534 1.39622 25.0492 1.65502 25.0945L17.9346 27.9696C18.1935 28.0153 18.4588 28.0094 18.7154 27.9525C18.972 27.8955 19.2149 27.7885 19.4301 27.6375C19.6453 27.4866 19.8287 27.2947 19.9697 27.0729C20.1107 26.851 20.2066 26.6035 20.2519 26.3446L23.9703 5.21913C24.0614 4.69665 23.9412 4.15938 23.6363 3.72547C23.3313 3.29157 22.8666 2.99656 22.3442 2.90533ZM18.2796 25.9996L1.99874 23.1245L5.71711 1.99907L21.9967 4.87412L18.2796 25.9996ZM7.16572 5.30163C7.21203 5.04059 7.3601 4.80863 7.57736 4.65674C7.79463 4.50484 8.06331 4.44545 8.32435 4.49162L18.6983 6.3229C18.9448 6.3661 19.1662 6.5002 19.3187 6.69872C19.4712 6.89725 19.5437 7.14574 19.5219 7.39512C19.5 7.6445 19.3855 7.87663 19.2008 8.04564C19.0162 8.21464 18.7749 8.30824 18.5246 8.30794C18.4659 8.30786 18.4074 8.30285 18.3496 8.29294L7.97563 6.46041C7.71463 6.41408 7.48269 6.266 7.33082 6.04871C7.17894 5.83142 7.11956 5.5627 7.16572 5.30163ZM6.47329 9.24171C6.49608 9.11235 6.54413 8.98874 6.61469 8.87795C6.68526 8.76716 6.77696 8.67136 6.88455 8.59602C6.99215 8.52068 7.11353 8.46728 7.24177 8.43887C7.37 8.41046 7.50258 8.4076 7.63192 8.43045L18.0059 10.263C18.2542 10.3045 18.4776 10.4382 18.6317 10.6373C18.7858 10.8364 18.8591 11.0863 18.837 11.3371C18.8149 11.5879 18.699 11.8211 18.5125 11.9902C18.326 12.1593 18.0826 12.2518 17.8309 12.2493C17.7718 12.2494 17.7128 12.244 17.6547 12.233L7.2807 10.4017C7.0199 10.3548 6.78837 10.2063 6.63697 9.98883C6.48558 9.77132 6.42671 9.50261 6.47329 9.24171ZM5.77961 13.1805C5.82679 12.9202 5.97522 12.6892 6.19239 12.538C6.40955 12.3869 6.67775 12.328 6.93824 12.3743L12.1227 13.2855C12.3692 13.3287 12.5905 13.4627 12.7429 13.6611C12.8954 13.8595 12.968 14.1079 12.9463 14.3571C12.9247 14.6064 12.8103 14.8385 12.6259 15.0076C12.4415 15.1768 12.2004 15.2706 11.9502 15.2706C11.8916 15.2706 11.833 15.2655 11.7753 15.2556L6.58827 14.3393C6.3275 14.2927 6.09587 14.1445 5.94425 13.9272C5.79264 13.71 5.73342 13.4414 5.77961 13.1805Z" fill="#1E3A8A"/>
</svg>
