<svg width="28" height="28" viewBox="0 0 28 28" fill="none" xmlns="http://www.w3.org/2000/svg">
<path d="M20.6169 14.2377C20.5842 14.1284 20.5345 14.0322 20.4677 13.9491C20.4008 13.866 20.3177 13.7992 20.2183 13.7486C20.1188 13.6981 20.0022 13.6727 19.8686 13.6727C19.7315 13.6727 19.6134 13.6989 19.5139 13.751C19.4145 13.8032 19.3321 13.8726 19.2669 13.9589C19.2017 14.0453 19.1536 14.1432 19.1227 14.2523C19.0916 14.3616 19.0762 14.4733 19.0762 14.5874C19.0762 14.7047 19.0924 14.818 19.1251 14.9273C19.1576 15.0365 19.2065 15.1334 19.2718 15.2182C19.337 15.3031 19.4193 15.3715 19.5188 15.4237C19.6182 15.4759 19.7364 15.502 19.8734 15.502C20.0104 15.502 20.1294 15.4751 20.2305 15.4213C20.3315 15.3675 20.4138 15.2974 20.4775 15.211C20.541 15.1247 20.5882 15.026 20.6193 14.9151C20.6502 14.8042 20.6658 14.6918 20.6658 14.5776C20.6658 14.4602 20.6494 14.347 20.6169 14.2377Z" fill="#1E3A8A"/>
<path d="M15.7849 9.48728C15.7262 9.42373 15.6676 9.39185 15.6089 9.39185H15.0317V10.1353H15.6332C15.692 10.1353 15.7466 10.1027 15.7971 10.0375C15.8476 9.9723 15.873 9.88092 15.873 9.76361C15.873 9.64303 15.8437 9.55093 15.7849 9.48728Z" fill="#1E3A8A"/>
<path d="M12.5822 9.95188C12.5495 9.84267 12.4997 9.74648 12.433 9.66335C12.3661 9.58023 12.283 9.5134 12.1835 9.46281C12.0841 9.41234 11.9675 9.38696 11.8339 9.38696C11.6969 9.38696 11.5788 9.4131 11.4793 9.46522C11.3798 9.51739 11.2974 9.58679 11.2323 9.67314C11.167 9.75955 11.1189 9.85739 11.088 9.96654C11.057 10.0758 11.0415 10.1875 11.0415 10.3016C11.0415 10.419 11.0577 10.5323 11.0904 10.6415C11.1229 10.7508 11.1718 10.8477 11.2371 10.9325C11.3023 11.0174 11.3846 11.0858 11.4841 11.138C11.5835 11.1902 11.7017 11.2163 11.8387 11.2163C11.9757 11.2163 12.0947 11.1894 12.1957 11.1355C12.2967 11.0818 12.3791 11.0117 12.4428 10.9253C12.5063 10.839 12.5535 10.7403 12.5846 10.6294C12.6155 10.5186 12.6311 10.4061 12.6311 10.2919C12.6311 10.1744 12.6147 10.0612 12.5822 9.95188Z" fill="#1E3A8A"/>
<path d="M26.0556 5.46875e-05L1.94482 0V25.6666H4.27801V28L5.44466 27.2222L6.61131 28V25.6666H26.0558L26.0556 5.46875e-05ZM17.1547 8.56045H17.1548H20.1088V9.39181H19.1111V12.0328H18.1574V9.39181H17.1547V8.56045ZM14.0784 8.56045H14.0785H15.6729C15.8423 8.56045 15.9989 8.59551 16.1424 8.66562C16.2859 8.73578 16.409 8.827 16.5117 8.93949C16.6143 9.05198 16.695 9.18094 16.7537 9.32591C16.8124 9.47106 16.8418 9.61685 16.8418 9.76363C16.8418 9.96587 16.7978 10.1542 16.7097 10.3286C16.6217 10.503 16.4994 10.6456 16.3428 10.7565L17.0765 12.0329H16.0005L15.3891 10.9667H15.0321V12.0329H14.0784V8.56045ZM9.52533 13.6776H8.09728V14.2547H9.2613V15.0275H8.09728V16.3187H7.14358V12.8462H9.52539V13.6776H9.52533ZM9.49356 10.5976C9.39408 10.7101 9.27355 10.7998 9.13164 10.8665C8.98983 10.9333 8.83414 10.9668 8.66461 10.9668H8.09728V12.0329H7.14358V8.56045H8.64011C8.80964 8.56045 8.9661 8.59551 9.10965 8.66562C9.2531 8.73578 9.3762 8.827 9.47885 8.93949C9.5815 9.05198 9.66227 9.18094 9.72089 9.32591C9.77963 9.47106 9.80894 9.61685 9.80894 9.76363C9.80894 9.91692 9.78127 10.0661 9.72587 10.2111C9.67031 10.3562 9.59293 10.485 9.49356 10.5976ZM13.1297 15.2548C13.0417 15.4651 12.9194 15.651 12.7629 15.8124C12.6065 15.9738 12.4198 16.1033 12.2029 16.2012C11.9861 16.299 11.7489 16.3479 11.4915 16.3479C11.2273 16.3479 10.9876 16.2974 10.7725 16.1963C10.5573 16.0953 10.373 15.9624 10.2199 15.7977C10.0666 15.6331 9.94757 15.4448 9.86286 15.2328C9.77799 15.0209 9.73571 14.8024 9.73571 14.5774C9.73571 14.3492 9.77968 14.1291 9.86773 13.9172C9.95578 13.7054 10.0788 13.5187 10.237 13.3573C10.3951 13.1959 10.5826 13.0671 10.7994 12.9708C11.0162 12.8747 11.2535 12.8266 11.511 12.8266C11.7751 12.8266 12.0148 12.8771 12.2299 12.9782C12.4452 13.0793 12.6293 13.2129 12.7826 13.3792C12.9358 13.5455 13.0539 13.7345 13.1372 13.9465C13.2202 14.1585 13.2619 14.3753 13.2619 14.597C13.2618 14.8253 13.2178 15.0445 13.1297 15.2548ZM13.4672 10.9691C13.3791 11.1794 13.2568 11.3653 13.1004 11.5266C12.9438 11.688 12.7572 11.8176 12.5404 11.9155C12.3235 12.0133 12.0863 12.0621 11.8288 12.0621C11.5647 12.0621 11.325 12.0116 11.1098 11.9106C10.8946 11.8095 10.7103 11.6767 10.5572 11.5119C10.4039 11.3474 10.2849 11.159 10.2002 10.947C10.1153 10.7352 10.073 10.5167 10.073 10.2916C10.0731 10.0635 10.1171 9.84342 10.2051 9.63145C10.2931 9.41948 10.4162 9.23284 10.5744 9.07145C10.7324 8.91007 10.9199 8.78134 11.1368 8.68503C11.3536 8.58889 11.5908 8.54082 11.8483 8.54082C12.1124 8.54082 12.3521 8.59135 12.5673 8.69241C12.7826 8.79353 12.9667 8.92713 13.1199 9.09344C13.2732 9.25974 13.3913 9.4488 13.4745 9.66077C13.5576 9.87279 13.5993 10.0896 13.5993 10.3112C13.5992 10.5396 13.5552 10.7588 13.4672 10.9691ZM16.2696 16.3186H13.7411V12.8463H14.6948V15.4873H16.2696V16.3186ZM17.6293 16.3186H16.6756V12.8463H17.6293V16.3186ZM21.5026 15.2549C21.4146 15.4652 21.2923 15.6511 21.1358 15.8125C20.9794 15.9738 20.7927 16.1034 20.5758 16.2013C20.359 16.2991 20.1217 16.348 19.8643 16.348C19.6003 16.348 19.3605 16.2975 19.1454 16.1964C18.9302 16.0954 18.7459 15.9625 18.5927 15.7977C18.4394 15.6332 18.3204 15.4448 18.2357 15.2328C18.1509 15.021 18.1086 14.8025 18.1086 14.5774C18.1086 14.3492 18.1526 14.1291 18.2406 13.9173C18.3287 13.7053 18.4517 13.5186 18.6099 13.3573C18.768 13.1959 18.9554 13.0671 19.1723 12.9708C19.3891 12.8747 19.6263 12.8266 19.8839 12.8266C20.148 12.8266 20.3876 12.8771 20.6028 12.9782C20.8181 13.0793 21.0022 13.213 21.1556 13.3792C21.3088 13.5455 21.4269 13.7346 21.5102 13.9466C21.5932 14.1585 21.6348 14.3754 21.6348 14.597C21.6347 14.8254 21.5907 15.0445 21.5026 15.2549Z" fill="#1E3A8A"/>
<path d="M8.75254 9.47016C8.69381 9.41799 8.63518 9.39185 8.57645 9.39185H8.09717V10.1353H8.60095C8.65957 10.1353 8.7141 10.1084 8.76474 10.0546C8.81521 10.0008 8.84059 9.90378 8.84059 9.76367C8.84059 9.62022 8.81122 9.52239 8.75254 9.47016Z" fill="#1E3A8A"/>
<path d="M12.2443 14.2377C12.2117 14.1284 12.162 14.0322 12.0951 13.9491C12.0283 13.866 11.9451 13.7992 11.8457 13.7486C11.7462 13.6981 11.6297 13.6727 11.496 13.6727C11.359 13.6727 11.2409 13.6989 11.1414 13.751C11.042 13.8032 10.9596 13.8726 10.8944 13.9589C10.8292 14.0453 10.7811 14.1432 10.7502 14.2523C10.7191 14.3616 10.7036 14.4733 10.7036 14.5874C10.7036 14.7047 10.7199 14.818 10.7526 14.9273C10.785 15.0365 10.834 15.1334 10.8992 15.2183C10.9645 15.3031 11.0467 15.3715 11.1463 15.4238C11.2457 15.4759 11.3639 15.502 11.5008 15.502C11.6378 15.502 11.7568 15.4751 11.8579 15.4213C11.9589 15.3675 12.0412 15.2975 12.1049 15.2111C12.1685 15.1247 12.2157 15.0261 12.2467 14.9151C12.2776 14.8043 12.2932 14.6918 12.2932 14.5776C12.2932 14.4602 12.2768 14.347 12.2443 14.2377Z" fill="#1E3A8A"/>
</svg>
