<svg width="28" height="28" viewBox="0 0 28 28" fill="none" xmlns="http://www.w3.org/2000/svg">
<g clip-path="url(#clip0_211_671)">
<path d="M7.29147 22.75C5.42364 22.75 3.7623 21.5542 3.15914 19.7738L3.1183 19.6397C2.97597 19.1683 2.91647 18.7717 2.91647 18.375V10.4207L0.0861349 19.8683C-0.277865 21.2578 0.551635 22.6987 1.94347 23.0825L19.9836 27.9137C20.2088 27.972 20.434 28 20.6556 28C21.8176 28 22.8793 27.2288 23.1768 26.0925L24.228 22.75H7.29147Z" fill="#1E3A8A"/>
<path d="M10.4998 10.5C11.7867 10.5 12.8332 9.45354 12.8332 8.16671C12.8332 6.87987 11.7867 5.83337 10.4998 5.83337C9.213 5.83337 8.1665 6.87987 8.1665 8.16671C8.1665 9.45354 9.213 10.5 10.4998 10.5Z" fill="#1E3A8A"/>
<path d="M25.0832 2.33337H7.58317C5.9755 2.33337 4.6665 3.64237 4.6665 5.25004V18.0834C4.6665 19.691 5.9755 21 7.58317 21H25.0832C26.6908 21 27.9998 19.691 27.9998 18.0834V5.25004C27.9998 3.64237 26.6908 2.33337 25.0832 2.33337ZM7.58317 4.66671H25.0832C25.4052 4.66671 25.6665 4.92804 25.6665 5.25004V13.5322L21.981 9.23187C21.5902 8.77337 21.0243 8.52837 20.4165 8.51437C19.8122 8.51787 19.2452 8.78621 18.8578 9.25054L14.5248 14.4515L13.1132 13.0434C12.3152 12.2454 11.0167 12.2454 10.2198 13.0434L6.99984 16.2622V5.25004C6.99984 4.92804 7.26117 4.66671 7.58317 4.66671Z" fill="#1E3A8A"/>
</g>
<defs>
<clipPath id="clip0_211_671">
<rect width="28" height="28" fill="white"/>
</clipPath>
</defs>
</svg>
