<svg width="28" height="28" viewBox="0 0 28 28" fill="none" xmlns="http://www.w3.org/2000/svg">
<path d="M27.7785 10.8145C27.6273 10.5416 27.4056 10.3143 27.1365 10.1563C26.8675 9.99834 26.561 9.91553 26.249 9.91651H9.66701C9.10795 9.91649 8.56396 10.0978 8.1167 10.4332C7.66944 10.7687 7.34304 11.2401 7.1865 11.7768L3.90438 23.0298C3.73159 23.6222 3.37133 24.1426 2.87766 24.5128C2.384 24.8831 1.78357 25.0832 1.1665 25.0832H22.0194C22.6366 25.0832 23.2371 24.883 23.7309 24.5127C24.2246 24.1424 24.585 23.6219 24.7578 23.0294L27.9086 12.227C27.9819 11.9948 28.0081 11.7502 27.9858 11.5077C27.9634 11.2651 27.893 11.0295 27.7785 10.8145Z" fill="#1E3A8A"/>
<path d="M2.7825 22.7033L6.06667 11.4508C6.29546 10.6729 6.76944 9.98971 7.418 9.50303C8.06656 9.01635 8.85498 8.75221 9.66583 8.74996H24.5V8.16663C24.5 7.54779 24.2542 6.95429 23.8166 6.51671C23.379 6.07913 22.7855 5.83329 22.1667 5.83329H13.2742C13.1003 5.83329 12.9287 5.79455 12.7717 5.71988C12.6147 5.64521 12.4764 5.53649 12.3667 5.40163L11.22 3.99165C10.9468 3.6558 10.6023 3.38505 10.2113 3.19909C9.82038 3.01313 9.39291 2.91663 8.96 2.91663H2.33333C1.71449 2.91663 1.121 3.16246 0.683417 3.60004C0.245833 4.03763 0 4.63112 0 5.24996L0 22.75C0 23.0594 0.122916 23.3561 0.341709 23.5749C0.560501 23.7937 0.857247 23.9166 1.16667 23.9166C1.53081 23.9156 1.88489 23.797 2.17608 23.5783C2.46727 23.3596 2.67999 23.0527 2.7825 22.7033Z" fill="#1E3A8A"/>
</svg>
