<svg width="54" height="54" viewBox="0 0 54 54" fill="none" xmlns="http://www.w3.org/2000/svg">
<rect width="54" height="54" rx="16" fill="#D4E6FE"/>
<path d="M34.09 27.2546C34.055 27.1376 34.0017 27.0345 33.9301 26.9454C33.8585 26.8564 33.7694 26.7848 33.6629 26.7306C33.5563 26.6765 33.4314 26.6493 33.2882 26.6493C33.1414 26.6493 33.0148 26.6773 32.9083 26.7331C32.8017 26.789 32.7134 26.8634 32.6436 26.9559C32.5737 27.0485 32.5222 27.1533 32.4891 27.2703C32.4558 27.3873 32.4392 27.507 32.4392 27.6293C32.4392 27.755 32.4566 27.8764 32.4916 27.9934C32.5265 28.1105 32.5789 28.2143 32.6488 28.3052C32.7187 28.3961 32.8068 28.4694 32.9135 28.5253C33.02 28.5812 33.1466 28.6092 33.2934 28.6092C33.4402 28.6092 33.5677 28.5804 33.6759 28.5227C33.7842 28.4651 33.8724 28.3901 33.9406 28.2975C34.0087 28.205 34.0593 28.0993 34.0925 27.9804C34.1257 27.8616 34.1424 27.7411 34.1424 27.6188C34.1424 27.493 34.1248 27.3717 34.09 27.2546Z" fill="#1E3A8A"/>
<path d="M28.9125 22.1649C28.8495 22.0968 28.7867 22.0626 28.7238 22.0626H28.1055V22.8592H28.7499C28.8129 22.8592 28.8713 22.8243 28.9255 22.7544C28.9796 22.6845 29.0068 22.5866 29.0068 22.4609C29.0068 22.3317 28.9754 22.2331 28.9125 22.1649Z" fill="#1E3A8A"/>
<path d="M25.4805 22.6628C25.4456 22.5458 25.3922 22.4427 25.3207 22.3536C25.249 22.2646 25.16 22.193 25.0534 22.1388C24.9469 22.0847 24.822 22.0575 24.6788 22.0575C24.532 22.0575 24.4055 22.0855 24.2989 22.1413C24.1923 22.1972 24.1041 22.2716 24.0342 22.3641C23.9643 22.4567 23.9128 22.5615 23.8797 22.6785C23.8464 22.7955 23.8298 22.9152 23.8298 23.0375C23.8298 23.1632 23.8472 23.2846 23.8823 23.4016C23.917 23.5187 23.9695 23.6225 24.0394 23.7134C24.1093 23.8044 24.1974 23.8777 24.304 23.9336C24.4106 23.9895 24.5372 24.0175 24.684 24.0175C24.8307 24.0175 24.9582 23.9886 25.0665 23.931C25.1747 23.8734 25.2629 23.7983 25.3312 23.7057C25.3993 23.6132 25.4498 23.5075 25.4831 23.3887C25.5162 23.2699 25.533 23.1494 25.533 23.0271C25.533 22.9012 25.5154 22.7798 25.4805 22.6628Z" fill="#1E3A8A"/>
<path d="M39.9165 12.0001L14.0835 12V39.4999H16.5833V42L17.8333 41.1667L19.0833 42V39.5H39.9167L39.9165 12.0001ZM30.3798 21.1719H30.3799H33.5449V22.0627H32.4759V24.8923H31.4541V22.0627H30.3798V21.1719ZM27.0838 21.1719H27.0839H28.7921C28.9737 21.1719 29.1414 21.2095 29.2951 21.2846C29.4489 21.3598 29.5808 21.4575 29.6908 21.578C29.8008 21.6986 29.8872 21.8367 29.9502 21.9921C30.0131 22.1476 30.0445 22.3038 30.0445 22.461C30.0445 22.6777 29.9974 22.8795 29.903 23.0663C29.8087 23.2532 29.6777 23.406 29.5099 23.5248L30.296 24.8924H29.1432L28.4881 23.75H28.1056V24.8924H27.0838V21.1719ZM22.2055 26.6546H20.6754V27.2729H21.9226V28.1009H20.6754V29.4843H19.6536V25.7638H22.2055V26.6546H22.2055ZM22.1714 23.3545C22.0648 23.4751 21.9357 23.5712 21.7837 23.6427C21.6317 23.7143 21.4649 23.7501 21.2833 23.7501H20.6754V24.8924H19.6536V21.1719H21.257C21.4387 21.1719 21.6063 21.2095 21.7601 21.2846C21.9138 21.3598 22.0457 21.4575 22.1557 21.578C22.2656 21.6986 22.3522 21.8367 22.415 21.9921C22.4779 22.1476 22.5093 22.3038 22.5093 22.461C22.5093 22.6253 22.4797 22.7851 22.4203 22.9405C22.3608 23.0959 22.2779 23.2339 22.1714 23.3545ZM26.0673 28.3444C25.973 28.5698 25.842 28.7689 25.6743 28.9419C25.5067 29.1148 25.3067 29.2536 25.0743 29.3585C24.842 29.4632 24.5878 29.5156 24.312 29.5156C24.029 29.5156 23.7722 29.4615 23.5417 29.3532C23.3111 29.245 23.1137 29.1026 22.9496 28.9261C22.7854 28.7498 22.6579 28.548 22.5671 28.3208C22.4762 28.0938 22.4309 27.8597 22.4309 27.6186C22.4309 27.3741 22.478 27.1383 22.5723 26.9113C22.6667 26.6844 22.7985 26.4844 22.968 26.3113C23.1373 26.1384 23.3382 26.0005 23.5705 25.8973C23.8029 25.7943 24.057 25.7428 24.333 25.7428C24.616 25.7428 24.8727 25.7969 25.1032 25.9052C25.3339 26.0135 25.5311 26.1567 25.6954 26.3348C25.8596 26.513 25.9861 26.7156 26.0753 26.9427C26.1643 27.1698 26.2089 27.4021 26.2089 27.6396C26.2088 27.8842 26.1617 28.1191 26.0673 28.3444ZM26.4288 23.7526C26.3345 23.9779 26.2035 24.1771 26.0359 24.35C25.8682 24.5229 25.6682 24.6617 25.4359 24.7666C25.2035 24.8713 24.9494 24.9237 24.6734 24.9237C24.3905 24.9237 24.1337 24.8696 23.9031 24.7613C23.6725 24.653 23.4751 24.5107 23.311 24.3342C23.1468 24.1579 23.0193 23.9561 22.9285 23.7289C22.8376 23.502 22.7923 23.2679 22.7923 23.0268C22.7923 22.7824 22.8395 22.5465 22.9338 22.3194C23.0281 22.0923 23.16 21.8923 23.3295 21.7194C23.4988 21.5465 23.6997 21.4086 23.932 21.3054C24.1643 21.2024 24.4185 21.1509 24.6944 21.1509C24.9773 21.1509 25.2342 21.205 25.4647 21.3133C25.6954 21.4216 25.8926 21.5648 26.0568 21.743C26.221 21.9212 26.3476 22.1237 26.4368 22.3508C26.5258 22.578 26.5704 22.8103 26.5704 23.0477C26.5704 23.2924 26.5232 23.5273 26.4288 23.7526ZM29.4315 29.4843H26.7224V25.7638H27.7442V28.5935H29.4315V29.4843ZM30.8882 29.4843H29.8664V25.7638H30.8882V29.4843ZM35.0383 28.3445C34.9439 28.5698 34.8129 28.769 34.6453 28.9419C34.4776 29.1148 34.2776 29.2536 34.0453 29.3585C33.813 29.4633 33.5588 29.5157 33.283 29.5157C33.0001 29.5157 32.7432 29.4616 32.5126 29.3532C32.2821 29.245 32.0846 29.1026 31.9205 28.9262C31.7563 28.7498 31.6288 28.548 31.538 28.3209C31.4471 28.0939 31.4018 27.8598 31.4018 27.6187C31.4018 27.3742 31.4489 27.1383 31.5433 26.9113C31.6376 26.6842 31.7694 26.4843 31.9389 26.3113C32.1083 26.1384 32.3091 26.0005 32.5415 25.8973C32.7738 25.7943 33.028 25.7428 33.3039 25.7428C33.5869 25.7428 33.8437 25.7969 34.0742 25.9052C34.3048 26.0136 34.5021 26.1568 34.6664 26.3349C34.8306 26.5131 34.9572 26.7156 35.0463 26.9428C35.1354 27.1699 35.1799 27.4022 35.1799 27.6397C35.1798 27.8844 35.1326 28.1191 35.0383 28.3445Z" fill="#1E3A8A"/>
<path d="M21.3775 22.1465C21.3146 22.0906 21.2517 22.0626 21.1888 22.0626H20.6753V22.8592H21.2151C21.2779 22.8592 21.3363 22.8304 21.3905 22.7727C21.4446 22.7151 21.4718 22.6111 21.4718 22.461C21.4718 22.3073 21.4404 22.2025 21.3775 22.1465Z" fill="#1E3A8A"/>
<path d="M25.119 27.2546C25.084 27.1376 25.0308 27.0345 24.9592 26.9454C24.8875 26.8564 24.7985 26.7848 24.6919 26.7306C24.5854 26.6765 24.4605 26.6493 24.3173 26.6493C24.1705 26.6493 24.0439 26.6773 23.9374 26.7331C23.8308 26.789 23.7425 26.8634 23.6727 26.9559C23.6028 27.0485 23.5513 27.1533 23.5181 27.2703C23.4848 27.3873 23.4683 27.507 23.4683 27.6293C23.4683 27.755 23.4857 27.8764 23.5207 27.9934C23.5555 28.1105 23.6079 28.2143 23.6779 28.3052C23.7478 28.3961 23.8359 28.4694 23.9425 28.5254C24.049 28.5813 24.1757 28.6093 24.3224 28.6093C24.4692 28.6093 24.5967 28.5804 24.705 28.5228C24.8132 28.4652 24.9014 28.3901 24.9697 28.2975C25.0378 28.205 25.0883 28.0993 25.1216 27.9804C25.1547 27.8617 25.1714 27.7412 25.1714 27.6188C25.1714 27.493 25.1538 27.3717 25.119 27.2546Z" fill="#1E3A8A"/>
</svg>
