<svg width="157" height="51" viewBox="0 0 157 51" fill="none" xmlns="http://www.w3.org/2000/svg">
<g filter="url(#filter0_d_6_5360)">
<rect x="14" y="13" width="129" height="23" rx="11.5" fill="#1E3A8A" shape-rendering="crispEdges"/>
<rect x="14.5" y="13.5" width="128" height="22" rx="11" stroke="#558ED4" shape-rendering="crispEdges"/>
<path d="M35.6977 21.0965C35.6697 21.0273 35.6254 20.966 35.5684 20.9177C35.5115 20.8694 35.4437 20.8356 35.3709 20.8193C35.2981 20.803 35.2224 20.8045 35.1503 20.8239C35.0782 20.8432 35.0119 20.8798 34.957 20.9304L32.6321 23.0756L31.6382 22.8621L31.4247 21.8683L33.5702 19.5437C33.6208 19.4888 33.6573 19.4225 33.6767 19.3505C33.696 19.2784 33.6976 19.2027 33.6812 19.1298C33.6649 19.057 33.6311 18.9892 33.5829 18.9323C33.5346 18.8754 33.4732 18.8311 33.404 18.8031C32.7734 18.548 32.0899 18.4517 31.4134 18.5226C30.7369 18.5935 30.0881 18.8295 29.5242 19.2098C28.9602 19.59 28.4983 20.103 28.179 20.7035C27.8596 21.304 27.6927 21.9738 27.6929 22.6539C27.6921 23.2282 27.8099 23.7965 28.039 24.3232L24.5656 27.3261C24.5569 27.3331 24.5488 27.3411 24.5408 27.3486C24.1945 27.6948 24 28.1644 24 28.654C24 28.8964 24.0478 29.1364 24.1405 29.3604C24.2333 29.5844 24.3693 29.7879 24.5408 29.9593C24.7122 30.1307 24.9157 30.2667 25.1397 30.3595C25.3637 30.4523 25.6038 30.5 25.8462 30.5C26.3359 30.5 26.8055 30.3055 27.1517 29.9593C27.1592 29.9518 27.1673 29.9432 27.1742 29.9351L30.1769 26.4609C30.8094 26.7385 31.5012 26.854 32.1896 26.797C32.878 26.7399 33.5413 26.5121 34.1195 26.1341C34.6976 25.7561 35.1724 25.2399 35.5007 24.6322C35.8291 24.0246 36.0007 23.3446 36 22.6539C36.0009 22.1201 35.8982 21.5912 35.6977 21.0965ZM31.8464 25.8841C31.3002 25.8833 30.763 25.7444 30.2848 25.4803C30.1922 25.4291 30.0847 25.4114 29.9806 25.43C29.8764 25.4485 29.7817 25.5024 29.7125 25.5824L26.4877 29.3167C26.3132 29.4825 26.0809 29.5736 25.8402 29.5705C25.5995 29.5674 25.3695 29.4704 25.1993 29.3002C25.0291 29.1301 24.9321 28.9001 24.9291 28.6595C24.926 28.4188 25.017 28.1865 25.1828 28.012L28.9147 24.7881C28.9949 24.7189 29.0488 24.6242 29.0674 24.5199C29.086 24.4156 29.0681 24.308 29.0168 24.2154C28.7226 23.6833 28.5845 23.0791 28.6185 22.4721C28.6524 21.8651 28.857 21.28 29.2086 20.7841C29.5603 20.2881 30.0448 19.9015 30.6064 19.6686C31.1681 19.4357 31.784 19.366 32.3835 19.4676L30.5836 21.4178C30.5335 21.4721 30.4972 21.5377 30.4778 21.6089C30.4583 21.6802 30.4562 21.7551 30.4717 21.8273L30.7982 23.3461C30.8169 23.433 30.8603 23.5126 30.9231 23.5754C30.9859 23.6382 31.0656 23.6816 31.1524 23.7003L32.6725 24.0267C32.7448 24.0422 32.8197 24.0402 32.891 24.0207C32.9622 24.0012 33.0278 23.9649 33.0821 23.9148L35.0326 22.1152C35.1103 22.5784 35.0862 23.0529 34.962 23.5059C34.8377 23.9588 34.6163 24.3792 34.313 24.7379C34.0098 25.0966 33.6321 25.385 33.2061 25.5829C32.7801 25.7808 32.3161 25.8836 31.8464 25.8841Z" fill="white"/>
<path d="M51.8295 22.4545C51.7784 22.0227 51.571 21.6875 51.2074 21.4489C50.8438 21.2102 50.3977 21.0909 49.8693 21.0909C49.483 21.0909 49.1449 21.1534 48.8551 21.2784C48.5682 21.4034 48.3438 21.5753 48.1818 21.794C48.0227 22.0128 47.9432 22.2614 47.9432 22.5398C47.9432 22.7727 47.9986 22.973 48.1094 23.1406C48.223 23.3054 48.3679 23.4432 48.544 23.554C48.7202 23.6619 48.9048 23.7514 49.098 23.8224C49.2912 23.8906 49.4688 23.946 49.6307 23.9886L50.517 24.2273C50.7443 24.2869 50.9972 24.3693 51.2756 24.4744C51.5568 24.5795 51.8253 24.723 52.081 24.9048C52.3395 25.0838 52.5526 25.3139 52.7202 25.5952C52.8878 25.8764 52.9716 26.2216 52.9716 26.6307C52.9716 27.1023 52.848 27.5284 52.6009 27.9091C52.3565 28.2898 51.9986 28.5923 51.527 28.8168C51.0582 29.0412 50.4886 29.1534 49.8182 29.1534C49.1932 29.1534 48.652 29.0526 48.1946 28.8509C47.7401 28.6491 47.3821 28.3679 47.1207 28.0071C46.8622 27.6463 46.7159 27.2273 46.6818 26.75H47.7727C47.8011 27.0795 47.9119 27.3523 48.1051 27.5682C48.3011 27.7812 48.5483 27.9403 48.8466 28.0455C49.1477 28.1477 49.4716 28.1989 49.8182 28.1989C50.2216 28.1989 50.5838 28.1335 50.9048 28.0028C51.2259 27.8693 51.4801 27.6847 51.6676 27.4489C51.8551 27.2102 51.9489 26.9318 51.9489 26.6136C51.9489 26.3239 51.8679 26.0881 51.706 25.9062C51.544 25.7244 51.331 25.5767 51.0668 25.4631C50.8026 25.3494 50.517 25.25 50.2102 25.1648L49.1364 24.858C48.4545 24.6619 47.9148 24.3821 47.517 24.0185C47.1193 23.6548 46.9205 23.179 46.9205 22.5909C46.9205 22.1023 47.0526 21.6761 47.3168 21.3125C47.5838 20.946 47.9418 20.6619 48.3906 20.4602C48.8423 20.2557 49.3466 20.1534 49.9034 20.1534C50.4659 20.1534 50.9659 20.2543 51.4034 20.456C51.8409 20.6548 52.1875 20.9276 52.4432 21.2741C52.7017 21.6207 52.8381 22.0142 52.8523 22.4545H51.8295ZM54.5728 29V22.4545H55.5444V23.4773H55.6296C55.766 23.1278 55.9862 22.8565 56.2901 22.6634C56.5941 22.4673 56.9592 22.3693 57.3853 22.3693C57.8171 22.3693 58.1765 22.4673 58.4634 22.6634C58.7532 22.8565 58.979 23.1278 59.141 23.4773H59.2092C59.3768 23.1392 59.6282 22.8707 59.9634 22.6719C60.2987 22.4702 60.7006 22.3693 61.1694 22.3693C61.7546 22.3693 62.2333 22.5526 62.6055 22.919C62.9776 23.2827 63.1637 23.8494 63.1637 24.6193V29H62.158V24.6193C62.158 24.1364 62.0259 23.7912 61.7617 23.5838C61.4975 23.3764 61.1864 23.2727 60.8285 23.2727C60.3683 23.2727 60.0117 23.4119 59.7589 23.6903C59.506 23.9659 59.3796 24.3153 59.3796 24.7386V29H58.3569V24.517C58.3569 24.1449 58.2362 23.8452 57.9947 23.6179C57.7532 23.3878 57.4421 23.2727 57.0614 23.2727C56.8001 23.2727 56.5558 23.3423 56.3285 23.4815C56.104 23.6207 55.9222 23.8139 55.783 24.0611C55.6467 24.3054 55.5785 24.5881 55.5785 24.9091V29H54.5728ZM66.9286 29.1534C66.5138 29.1534 66.1374 29.0753 65.7994 28.919C65.4613 28.7599 65.1928 28.5312 64.994 28.233C64.7951 27.9318 64.6957 27.5682 64.6957 27.142C64.6957 26.767 64.7695 26.4631 64.9173 26.2301C65.065 25.9943 65.2624 25.8097 65.5096 25.6761C65.7567 25.5426 66.0295 25.4432 66.3278 25.3778C66.6289 25.3097 66.9315 25.2557 67.2354 25.2159C67.6332 25.1648 67.9556 25.1264 68.2028 25.1009C68.4528 25.0724 68.6346 25.0256 68.7482 24.9602C68.8647 24.8949 68.9229 24.7812 68.9229 24.6193V24.5852C68.9229 24.1648 68.8079 23.8381 68.5778 23.6051C68.3505 23.3722 68.0053 23.2557 67.5423 23.2557C67.0621 23.2557 66.6857 23.3608 66.413 23.571C66.1403 23.7812 65.9485 24.0057 65.8377 24.2443L64.8832 23.9034C65.0536 23.5057 65.2809 23.196 65.565 22.9744C65.8519 22.75 66.1644 22.5937 66.5025 22.5057C66.8434 22.4148 67.1786 22.3693 67.5082 22.3693C67.7184 22.3693 67.9599 22.3949 68.2326 22.446C68.5082 22.4943 68.7738 22.5952 69.0295 22.7486C69.288 22.902 69.5025 23.1335 69.6729 23.4432C69.8434 23.7528 69.9286 24.1676 69.9286 24.6875V29H68.9229V28.1136H68.8718C68.8036 28.2557 68.69 28.4077 68.5309 28.5696C68.3718 28.7315 68.1602 28.8693 67.896 28.983C67.6317 29.0966 67.3093 29.1534 66.9286 29.1534ZM67.082 28.25C67.4798 28.25 67.815 28.1719 68.0877 28.0156C68.3633 27.8594 68.5707 27.6577 68.7099 27.4105C68.8519 27.1634 68.9229 26.9034 68.9229 26.6307V25.7102C68.8803 25.7614 68.7866 25.8082 68.6417 25.8509C68.4996 25.8906 68.3349 25.9261 68.1474 25.9574C67.9627 25.9858 67.7823 26.0114 67.6062 26.0341C67.4329 26.054 67.2923 26.071 67.1843 26.0852C66.9229 26.1193 66.6786 26.1747 66.4513 26.2514C66.2269 26.3253 66.0451 26.4375 65.9059 26.5881C65.7695 26.7358 65.7013 26.9375 65.7013 27.1932C65.7013 27.5426 65.8306 27.8068 66.0891 27.9858C66.3505 28.1619 66.6815 28.25 67.082 28.25ZM71.7642 29V22.4545H72.7358V23.4432H72.804C72.9233 23.1193 73.1392 22.8565 73.4517 22.6548C73.7642 22.4531 74.1165 22.3523 74.5085 22.3523C74.5824 22.3523 74.6747 22.3537 74.7855 22.3565C74.8963 22.3594 74.9801 22.3636 75.0369 22.3693V23.392C75.0028 23.3835 74.9247 23.3707 74.8026 23.3537C74.6832 23.3338 74.5568 23.3239 74.4233 23.3239C74.1051 23.3239 73.821 23.3906 73.571 23.5241C73.3239 23.6548 73.1278 23.8366 72.983 24.0696C72.8409 24.2997 72.7699 24.5625 72.7699 24.858V29H71.7642ZM79.4858 22.4545V23.3068H76.0938V22.4545H79.4858ZM77.0824 20.8864H78.0881V27.125C78.0881 27.4091 78.1293 27.6222 78.2116 27.7642C78.2969 27.9034 78.4048 27.9972 78.5355 28.0455C78.669 28.0909 78.8097 28.1136 78.9574 28.1136C79.0682 28.1136 79.1591 28.108 79.2301 28.0966C79.3011 28.0824 79.358 28.071 79.4006 28.0625L79.6051 28.9659C79.5369 28.9915 79.4418 29.017 79.3196 29.0426C79.1974 29.071 79.0426 29.0852 78.8551 29.0852C78.571 29.0852 78.2926 29.0241 78.0199 28.902C77.75 28.7798 77.5256 28.5938 77.3466 28.3438C77.1705 28.0938 77.0824 27.7784 77.0824 27.3977V20.8864ZM84.5099 29V20.2727H89.7429V21.2102H85.5668V24.1591H89.3509V25.0966H85.5668V29H84.5099ZM93.6804 29.1364C93.0497 29.1364 92.5057 28.9972 92.0483 28.7188C91.5938 28.4375 91.2429 28.0455 90.9957 27.5426C90.7514 27.0369 90.6293 26.4489 90.6293 25.7784C90.6293 25.108 90.7514 24.517 90.9957 24.0057C91.2429 23.4915 91.5866 23.0909 92.027 22.804C92.4702 22.5142 92.9872 22.3693 93.5781 22.3693C93.919 22.3693 94.2557 22.4261 94.5881 22.5398C94.9205 22.6534 95.223 22.8381 95.4957 23.0938C95.7685 23.3466 95.9858 23.6818 96.1477 24.0994C96.3097 24.517 96.3906 25.0312 96.3906 25.642V26.0682H91.3452V25.1989H95.3679C95.3679 24.8295 95.294 24.5 95.1463 24.2102C95.0014 23.9205 94.794 23.6918 94.5241 23.5241C94.2571 23.3565 93.9418 23.2727 93.5781 23.2727C93.1776 23.2727 92.831 23.3722 92.5384 23.571C92.2486 23.767 92.0256 24.0227 91.8693 24.3381C91.7131 24.6534 91.6349 24.9915 91.6349 25.3523V25.9318C91.6349 26.4261 91.7202 26.8452 91.8906 27.1889C92.0639 27.5298 92.304 27.7898 92.6108 27.9688C92.9176 28.1449 93.2741 28.233 93.6804 28.233C93.9446 28.233 94.1832 28.196 94.3963 28.1222C94.6122 28.0455 94.7983 27.9318 94.9545 27.7812C95.1108 27.6278 95.2315 27.4375 95.3168 27.2102L96.2884 27.483C96.1861 27.8125 96.0142 28.1023 95.7727 28.3523C95.5313 28.5994 95.233 28.7926 94.8778 28.9318C94.5227 29.0682 94.1236 29.1364 93.6804 29.1364ZM99.8466 29.1534C99.4318 29.1534 99.0554 29.0753 98.7173 28.919C98.3793 28.7599 98.1108 28.5312 97.9119 28.233C97.7131 27.9318 97.6136 27.5682 97.6136 27.142C97.6136 26.767 97.6875 26.4631 97.8352 26.2301C97.983 25.9943 98.1804 25.8097 98.4276 25.6761C98.6747 25.5426 98.9474 25.4432 99.2457 25.3778C99.5469 25.3097 99.8494 25.2557 100.153 25.2159C100.551 25.1648 100.874 25.1264 101.121 25.1009C101.371 25.0724 101.553 25.0256 101.666 24.9602C101.783 24.8949 101.841 24.7812 101.841 24.6193V24.5852C101.841 24.1648 101.726 23.8381 101.496 23.6051C101.268 23.3722 100.923 23.2557 100.46 23.2557C99.9801 23.2557 99.6037 23.3608 99.331 23.571C99.0582 23.7812 98.8665 24.0057 98.7557 24.2443L97.8011 23.9034C97.9716 23.5057 98.1989 23.196 98.483 22.9744C98.7699 22.75 99.0824 22.5937 99.4205 22.5057C99.7614 22.4148 100.097 22.3693 100.426 22.3693C100.636 22.3693 100.878 22.3949 101.151 22.446C101.426 22.4943 101.692 22.5952 101.947 22.7486C102.206 22.902 102.42 23.1335 102.591 23.4432C102.761 23.7528 102.847 24.1676 102.847 24.6875V29H101.841V28.1136H101.79C101.722 28.2557 101.608 28.4077 101.449 28.5696C101.29 28.7315 101.078 28.8693 100.814 28.983C100.55 29.0966 100.227 29.1534 99.8466 29.1534ZM100 28.25C100.398 28.25 100.733 28.1719 101.006 28.0156C101.281 27.8594 101.489 27.6577 101.628 27.4105C101.77 27.1634 101.841 26.9034 101.841 26.6307V25.7102C101.798 25.7614 101.705 25.8082 101.56 25.8509C101.418 25.8906 101.253 25.9261 101.065 25.9574C100.881 25.9858 100.7 26.0114 100.524 26.0341C100.351 26.054 100.21 26.071 100.102 26.0852C99.8409 26.1193 99.5966 26.1747 99.3693 26.2514C99.1449 26.3253 98.9631 26.4375 98.8239 26.5881C98.6875 26.7358 98.6193 26.9375 98.6193 27.1932C98.6193 27.5426 98.7486 27.8068 99.0071 27.9858C99.2685 28.1619 99.5994 28.25 100 28.25ZM107.529 22.4545V23.3068H104.137V22.4545H107.529ZM105.125 20.8864H106.131V27.125C106.131 27.4091 106.172 27.6222 106.255 27.7642C106.34 27.9034 106.448 27.9972 106.578 28.0455C106.712 28.0909 106.853 28.1136 107 28.1136C107.111 28.1136 107.202 28.108 107.273 28.0966C107.344 28.0824 107.401 28.071 107.444 28.0625L107.648 28.9659C107.58 28.9915 107.485 29.017 107.363 29.0426C107.24 29.071 107.086 29.0852 106.898 29.0852C106.614 29.0852 106.336 29.0241 106.063 28.902C105.793 28.7798 105.569 28.5938 105.39 28.3438C105.213 28.0938 105.125 27.7784 105.125 27.3977V20.8864ZM113.167 26.3239V22.4545H114.172V29H113.167V27.892H113.098C112.945 28.2244 112.706 28.5071 112.382 28.7401C112.059 28.9702 111.65 29.0852 111.155 29.0852C110.746 29.0852 110.382 28.9957 110.064 28.8168C109.746 28.6349 109.496 28.3622 109.314 27.9986C109.132 27.6321 109.042 27.1705 109.042 26.6136V22.4545H110.047V26.5455C110.047 27.0227 110.181 27.4034 110.448 27.6875C110.718 27.9716 111.061 28.1136 111.479 28.1136C111.729 28.1136 111.983 28.0497 112.242 27.9219C112.503 27.794 112.722 27.598 112.898 27.3338C113.077 27.0696 113.167 26.733 113.167 26.3239ZM116.014 29V22.4545H116.986V23.4432H117.054C117.173 23.1193 117.389 22.8565 117.702 22.6548C118.014 22.4531 118.366 22.3523 118.759 22.3523C118.832 22.3523 118.925 22.3537 119.036 22.3565C119.146 22.3594 119.23 22.3636 119.287 22.3693V23.392C119.253 23.3835 119.175 23.3707 119.053 23.3537C118.933 23.3338 118.807 23.3239 118.673 23.3239C118.355 23.3239 118.071 23.3906 117.821 23.5241C117.574 23.6548 117.378 23.8366 117.233 24.0696C117.091 24.2997 117.02 24.5625 117.02 24.858V29H116.014ZM123.024 29.1364C122.393 29.1364 121.849 28.9972 121.392 28.7188C120.938 28.4375 120.587 28.0455 120.339 27.5426C120.095 27.0369 119.973 26.4489 119.973 25.7784C119.973 25.108 120.095 24.517 120.339 24.0057C120.587 23.4915 120.93 23.0909 121.371 22.804C121.814 22.5142 122.331 22.3693 122.922 22.3693C123.263 22.3693 123.599 22.4261 123.932 22.5398C124.264 22.6534 124.567 22.8381 124.839 23.0938C125.112 23.3466 125.33 23.6818 125.491 24.0994C125.653 24.517 125.734 25.0312 125.734 25.642V26.0682H120.689V25.1989H124.712C124.712 24.8295 124.638 24.5 124.49 24.2102C124.345 23.9205 124.138 23.6918 123.868 23.5241C123.601 23.3565 123.286 23.2727 122.922 23.2727C122.521 23.2727 122.175 23.3722 121.882 23.571C121.592 23.767 121.369 24.0227 121.213 24.3381C121.057 24.6534 120.979 24.9915 120.979 25.3523V25.9318C120.979 26.4261 121.064 26.8452 121.234 27.1889C121.408 27.5298 121.648 27.7898 121.955 27.9688C122.261 28.1449 122.618 28.233 123.024 28.233C123.288 28.233 123.527 28.196 123.74 28.1222C123.956 28.0455 124.142 27.9318 124.298 27.7812C124.455 27.6278 124.575 27.4375 124.661 27.2102L125.632 27.483C125.53 27.8125 125.358 28.1023 125.116 28.3523C124.875 28.5994 124.577 28.7926 124.222 28.9318C123.866 29.0682 123.467 29.1364 123.024 29.1364ZM131.901 23.9205L130.997 24.1761C130.94 24.0256 130.857 23.8793 130.746 23.7372C130.638 23.5923 130.49 23.473 130.303 23.3793C130.115 23.2855 129.875 23.2386 129.582 23.2386C129.182 23.2386 128.848 23.331 128.581 23.5156C128.317 23.6974 128.185 23.929 128.185 24.2102C128.185 24.4602 128.276 24.6577 128.457 24.8026C128.639 24.9474 128.923 25.0682 129.31 25.1648L130.281 25.4034C130.866 25.5455 131.303 25.7628 131.589 26.0554C131.876 26.3452 132.02 26.7187 132.02 27.1761C132.02 27.5511 131.912 27.8864 131.696 28.1818C131.483 28.4773 131.185 28.7102 130.801 28.8807C130.418 29.0511 129.972 29.1364 129.463 29.1364C128.795 29.1364 128.243 28.9915 127.805 28.7017C127.368 28.4119 127.091 27.9886 126.974 27.4318L127.929 27.1932C128.02 27.5455 128.192 27.8097 128.445 27.9858C128.7 28.1619 129.034 28.25 129.446 28.25C129.915 28.25 130.287 28.1506 130.562 27.9517C130.841 27.75 130.98 27.5085 130.98 27.2273C130.98 27 130.901 26.8097 130.741 26.6562C130.582 26.5 130.338 26.3835 130.009 26.3068L128.918 26.0511C128.318 25.9091 127.878 25.6889 127.597 25.3906C127.318 25.0895 127.179 24.7131 127.179 24.2614C127.179 23.892 127.283 23.5653 127.49 23.2812C127.7 22.9972 127.986 22.7741 128.347 22.6122C128.71 22.4503 129.122 22.3693 129.582 22.3693C130.23 22.3693 130.739 22.5114 131.108 22.7955C131.48 23.0795 131.744 23.4545 131.901 23.9205Z" fill="white"/>
</g>
<defs>
<filter id="filter0_d_6_5360" x="0" y="0" width="157" height="51" filterUnits="userSpaceOnUse" color-interpolation-filters="sRGB">
<feFlood flood-opacity="0" result="BackgroundImageFix"/>
<feColorMatrix in="SourceAlpha" type="matrix" values="0 0 0 0 0 0 0 0 0 0 0 0 0 0 0 0 0 0 127 0" result="hardAlpha"/>
<feOffset dy="1"/>
<feGaussianBlur stdDeviation="7"/>
<feComposite in2="hardAlpha" operator="out"/>
<feColorMatrix type="matrix" values="0 0 0 0 0 0 0 0 0 0 0 0 0 0 0 0 0 0 0.06 0"/>
<feBlend mode="normal" in2="BackgroundImageFix" result="effect1_dropShadow_6_5360"/>
<feBlend mode="normal" in="SourceGraphic" in2="effect1_dropShadow_6_5360" result="shape"/>
</filter>
</defs>
</svg>
