<svg width="54" height="54" viewBox="0 0 54 54" fill="none" xmlns="http://www.w3.org/2000/svg">
<rect width="54" height="54" rx="16" fill="#FEF7B8"/>
<path d="M36.2258 25.8595H31.5843L30.8434 23.7991C30.7353 23.5047 30.4585 23.3066 30.1409 23.3066H29.6377V25.967C29.6377 26.4368 29.2585 26.816 28.7887 26.816H24.9962C24.5315 26.816 24.1472 26.4368 24.1472 25.967V23.3066H23.7453C23.434 23.3066 23.1509 23.5047 23.0428 23.7991L22.3076 25.8595H17.7679C16.6296 25.8595 15.7019 26.7878 15.7019 27.9255V38.1595C15.7019 39.2972 16.6296 40.2255 17.7679 40.2255H36.2321C37.3755 40.2255 38.2981 39.2972 38.2981 38.1595V27.9312C38.2981 26.7878 37.3698 25.8595 36.2258 25.8595ZM27.0023 37.5181C24.5304 37.5181 22.5272 35.5144 22.5272 33.043C22.5272 32.2195 22.7536 31.4502 23.1413 30.7874L23.1459 30.7704C23.1623 30.7432 23.1827 30.7189 23.1996 30.6923C23.2664 30.5842 23.3377 30.4795 23.4136 30.3776C23.443 30.3374 23.4719 30.2966 23.503 30.2582C23.6094 30.124 23.7221 29.9949 23.8426 29.8738C23.8511 29.8659 23.8602 29.8585 23.8681 29.8506C23.983 29.7385 24.1036 29.6338 24.2298 29.5342C24.27 29.5019 24.3119 29.4725 24.3538 29.4419C24.4562 29.3666 24.561 29.2959 24.6691 29.2291C24.7132 29.2025 24.7551 29.1753 24.7992 29.1504C24.9498 29.0655 25.1032 28.9857 25.2634 28.9183C25.2696 28.9155 25.2759 28.9138 25.2815 28.9115C25.436 28.847 25.5962 28.7938 25.7587 28.7463C25.8096 28.7321 25.8611 28.7202 25.9121 28.7072C26.0383 28.6755 26.1668 28.6495 26.297 28.6285C26.3502 28.62 26.4028 28.611 26.4566 28.6042C26.6355 28.5827 26.8166 28.568 27.0023 28.568C27.1874 28.568 27.3685 28.5827 27.5479 28.6042C27.6017 28.611 27.6543 28.62 27.7075 28.6285C27.8372 28.6495 27.9662 28.6755 28.0919 28.7072C28.1434 28.7202 28.1949 28.7321 28.2453 28.7463C28.4083 28.7938 28.5679 28.847 28.7225 28.9115C28.7281 28.9138 28.7349 28.9155 28.7412 28.9183C28.9013 28.9857 29.0547 29.0655 29.2053 29.1504C29.2494 29.1753 29.2913 29.2025 29.3349 29.2291C29.4436 29.2959 29.5489 29.366 29.6508 29.4413C29.6921 29.4725 29.7345 29.5025 29.7747 29.5347C29.9009 29.6338 30.0221 29.7385 30.1364 29.8506C30.1438 29.8585 30.1534 29.8659 30.1619 29.8738C30.2825 29.9949 30.3951 30.124 30.5015 30.2582C30.5327 30.2966 30.5609 30.3374 30.5904 30.377C30.6663 30.4795 30.7381 30.5842 30.8049 30.6928C30.8219 30.7195 30.8423 30.7432 30.8581 30.7704L30.8627 30.7874C31.2509 31.4502 31.4774 32.2195 31.4774 33.043C31.4774 35.5144 29.4742 37.5181 27.0023 37.5181ZM34.6093 30.6221C33.9634 30.6221 33.4404 30.0991 33.4404 29.4532C33.4404 28.8074 33.9634 28.2838 34.6093 28.2838C35.2551 28.2838 35.7781 28.8074 35.7781 29.4532C35.7781 30.0991 35.2551 30.6221 34.6093 30.6221Z" fill="#713F12"/>
<path d="M27.0027 30.7205C25.7218 30.7205 24.6797 31.762 24.6797 33.0429C24.6797 34.3233 25.7218 35.3654 27.0027 35.3654C28.2831 35.3654 29.3251 34.3233 29.3251 33.0429C29.3251 31.762 28.2831 30.7205 27.0027 30.7205Z" fill="#713F12"/>
<path d="M23.8821 18.8405H24.4804C24.6095 18.8405 24.7153 18.9458 24.7153 19.0755V25.967C24.7153 26.1238 24.8415 26.25 24.9983 26.25H28.7908C28.947 26.25 29.0738 26.1238 29.0738 25.967V19.0755C29.0738 18.9458 29.1791 18.8405 29.3087 18.8405H29.907C30.2246 18.8405 30.5042 18.6611 30.6361 18.3713C30.7674 18.0821 30.7198 17.7538 30.511 17.5138L27.4991 14.0496C27.3468 13.8747 27.1261 13.7745 26.8946 13.7745C26.6625 13.7745 26.4417 13.8753 26.2906 14.0496L23.2782 17.5138C23.0687 17.7538 23.0212 18.0826 23.1536 18.3719C23.2849 18.6611 23.564 18.8405 23.8821 18.8405Z" fill="#713F12"/>
</svg>
